<?xml version="1.0" encoding="UTF-8"?>
<svg width="512px" height="512px" viewBox="0 0 512 512" version="1.1" xmlns="http://www.w3.org/2000/svg">
    <title>Shopping Cart Icon</title>
    <g stroke="none" stroke-width="1" fill="none" fill-rule="evenodd">
        <g fill="#0066cc" fill-rule="nonzero">
            <path d="M156,350 C134.9,350 118,366.9 118,388 C118,409.1 134.9,426 156,426 C177.1,426 194,409.1 194,388 C194,366.9 177.1,350 156,350 Z M38,82 L38,114 L70,114 L140.6,264.4 L117.8,304.3 C115.1,309.1 113.5,314.5 113.5,320.5 C113.5,341.6 130.4,358.5 151.5,358.5 L361.5,358.5 L361.5,326.5 L159.6,326.5 C157.2,326.5 155.4,324.7 155.4,322.3 L156,320.5 L170.9,294.5 L294.1,294.5 C309.3,294.5 322.8,286.2 329.8,273.8 L400,153.6 C402.5,148.9 404,143.7 404,138 C404,127.5 395.5,119 385,119 L112.2,119 L93.7,82 L38,82 Z M338,350 C316.9,350 300,366.9 300,388 C300,409.1 316.9,426 338,426 C359.1,426 376,409.1 376,388 C376,366.9 359.1,350 338,350 Z"/>
        </g>
    </g>
</svg> 